<svg xmlns="http://www.w3.org/2000/svg" viewBox="0 0 230.1 229.29"><defs><style>.cls-1{fill:#007f6e;}</style></defs><g id="Layer_2" data-name="Layer 2"><g id="Layer_1-2" data-name="Layer 1"><path class="cls-1" d="M159.7,169,110.41,72l29.65-58.38a.26.26,0,0,1,.22-.13h76.11a.23.23,0,0,1,.23.24V215.58a.23.23,0,0,1-.23.24H37.75a.2.2,0,0,1-.21-.12.21.21,0,0,1,0-.23L61.12,169Zm-22-13.48H68l34.89-68.68ZM13.48,13.72a.24.24,0,0,1,.24-.24H65.43a.26.26,0,0,1,.22.13L95.3,72,52.85,155.55H13.72a.24.24,0,0,1-.24-.24ZM216.39,0H140.28a13.65,13.65,0,0,0-12.23,7.5L102.86,57.11,77.66,7.5A13.65,13.65,0,0,0,65.43,0H13.72A13.73,13.73,0,0,0,0,13.72V155.31A13.73,13.73,0,0,0,13.72,169H46L25.51,209.37a13.72,13.72,0,0,0,12.24,19.92H216.39a13.73,13.73,0,0,0,13.71-13.71V13.72A13.73,13.73,0,0,0,216.39,0"/></g></g></svg>